<svg 
xmlns="http://www.w3.org/2000/svg" 
    width="300" 
    height="300" 
    viewBox="0.0 0.0 150.0 150.0" 
    style="">
<rect id="backgroundrect" width="100%" height="100%" x="0" y="0" fill="none" stroke="none"/>
<path fill="#555" d="M 0,0
L 300,0
  300,300
  0,300
"/>
<path fill="#fff" d="M 17.5,12.5
L 17.5,11.25
  25,11.25
  25,12.5
  22.5,12.5
  27.917,28.75
  30,28.75
  30,30
  22.5,30
  22.5,28.75
  25.5,28.75
  22.5,20
C 20,37.5 0,30 20,12.5
M 20,13.75
C 8.75,23.75 17.5,35 21.333,17.5
"/>
<path fill="#fff" d="M 32.5,11.25
L 47.5,11.25
  46.25,15
  43.75,12.5
  38.75,12.5
  38.75,17.5
C 38.75,20 42.5,22.5 47.5,22.5
L 47.5,30
  32.5,30
  32.5,28.75
  35,28.75
  35,12.5
  32.5,12.5
M 38.75,28.75
L 43.75,28.75
  43.75,23.75
C 42.5,22.5 40,22.5 38.75,20
Z 
"/>
<path fill="#fff" d="M 51.25,30
L 51.25,28.75
  53.75,28.75
  53.75,17.5
C 53.75,13.75 55,11.25 58.75,11.25
C 67.5,11.25 70,22.5 58.75,17.5
L 57.5,18.75
C 57.5,20 58.75,22.5 66.25,22.5
L 66.25,30
M 57.5,28.75
L 62.5,28.75
  62.5,23.75
C 62.5,22.5 58.75,23.75 57.5,21.25
Z 
M 62.5,15
C 62.5,12.5 56.25,12.5 57.5,17.5
L 58.75,16.25
C 58.75,17.5 62.5,18.75 62.5,15
"/>
<path fill="#fff" d="M 70,30
L 70,28.75
  72.5,28.75
  72.5,12.5
  70,12.5
  70,11.25
  83.75,11.25
  82.5,15
  80,12.5
  76.25,12.5
  76.25,28.75
  78.75,28.75
  78.75,30
Z 
"/>
<path fill="#fff" d="M 86.25,30
L 85,26.25
  87.5,26.25
C 86.25,20 91.25,17.5 91.25,12.5
L 88.75,12.5
  88.75,11.25
  97.5,11.25
  97.5,12.5
  95,12.5
  99.75,26.25
  102.5,26.25
  101.25,30
  98.75,27.5
  88.75,27.5
Z 
M 88.75,26.25
L 96.25,26.25
  92.5,13.75
C 91.25,17.5 87.5,20 90,26.25
"/>
<path fill="#fff" d="M 108.75,30
C 108.75,27.5 105,26.25 105,21.25
C 105,8.75 120,8.75 120,16.25
L 121.25,16.25
  121.25,17.5
  115,17.5
  115,16.25
  116.25,16.25
C 117.5,10 107.5,11.25 108.75,20
C 111.25,18.75 115,17.5 117.5,21.25
L 118.75,21.25
  118.75,22.5
  112.5,22.5
  112.5,21.25
  113.75,21.25
C 113.75,20 111.25,20 108.75,22.5
C 108.75,26.25 111.25,26.25 110,28.75
C 112.5,30 116.25,27.5 116.25,26.25
L 115,26.25
  115,25
  121.25,25
  121.25,26.25
  120,26.25
C 120,28.75 116.25,31.25 108.75,30
"/>
<path fill="#fff" d="M 126.25,30
L 126.25,28.75
  127.5,28.75
C 127.5,25 128.75,21.25 133.75,20
C 132.5,13.75 130,13.75 127.5,16.25
L 126.25,12.5
C 126.25,11.25 130,11.25 131.25,12.5
C 133.75,13.75 133.75,18.75 135,20
L 135,12.5
  133.75,12.5
  133.75,11.25
  140,11.25
  140,12.5
  138.75,12.5
  138.75,20
C 140,18.75 140,13.75 142.5,12.5
C 143.75,11.25 147.5,11.25 147.5,12.5
L 146.25,16.25
C 143.75,13.75 141.25,13.75 140,20
C 145,21.25 146.25,25 146.25,28.75
L 147.5,28.75
  147.5,30
  141.25,30
  141.25,28.75
  142.5,28.75
C 143.75,25 141.25,21.25 138.75,21.25
L 138.75,28.75
  140,28.75
  140,30
  133.75,30
  133.75,28.75
  135,28.75
  135,21.25
C 132.5,21.25 130,25 131.25,28.75
L 132.5,28.75
  132.5,30
Z 
"/>
<path fill="#fff" d="M 153.75,15
L 152.5,11.25
  166.25,11.25
  158.75,26.25
  165,26.25
C 167.5,26.25 167.5,31.25 165,31.25
L 161.25,31.25
  161.25,30
  162.5,30
C 163.75,30 163.75,27.5 162.5,27.5
L 153.75,27.5
  161.25,12.5
  156.25,12.5
"/>
<path fill="#fff" d="M 171.25,30
L 171.25,28.75
  172.5,28.75
  172.5,12.5
  171.25,12.5
  171.25,11.25
  177.5,11.25
  177.5,12.5
  176.25,12.5
  176.25,23.75
  182.5,17.5
  182.5,12.5
  181.25,12.5
  181.25,11.25
  187.5,11.25
  187.5,12.5
  186.25,12.5
  186.25,28.75
  187.5,28.75
  187.5,30
  181.25,30
  181.25,28.75
  182.5,28.75
  182.5,18.75
  176.25,25
  176.25,28.75
  177.5,28.75
  177.5,30
"/>
<path fill="#fff" d="M 191.25,30
L 191.25,28.75
  193.75,28.75
  193.75,12.5
  191.25,12.5
  191.25,11.25
  200,11.25
  200,12.5
  197.5,12.5
  197.5,28.75
  200,28.75
  200,30
Z 
M 193.75,10
L 193.75,6.25
  197.5,6.25
  197.5,10
Z 
"/>
<path fill="#fff" d="M 203.75,30
L 203.75,28.75
  205,28.75
  205,12.5
  203.75,12.5
  203.75,11.25
  210,11.25
  210,12.5
  208.75,12.5
  208.75,23.75
  215,17.5
  215,12.5
  213.75,12.5
  213.75,11.25
  220,11.25
  220,12.5
  218.75,12.5
  218.75,28.75
  220,28.75
  220,30
  213.75,30
  213.75,28.75
  215,28.75
  215,18.75
  208.75,25
  208.75,28.75
  210,28.75
  210,30
Z 
M 208.75,7.5
A 1 1 0 0 0 206.25,8.75
C 206.25,11.25 217.5,11.25 217.5,8.75
A 1 1 0 0 0 215,7.5
  1 1 0 0 0 215,8.75
C 216.25,10 207.5,10 208.75,8.75
A 1 1 0 0 0 208.75,7.5
Z 
"/>
<path fill="#fff" d="M 223.75,30
L 223.75,28.75
  225,28.75
  225,12.5
  223.75,12.5
  223.75,11.25
  230,11.25
  230,12.5
  228.75,12.5
  228.75,17.5
C 232.5,17.5 231.25,8.75 238.75,11.25
L 237.5,15
C 231.25,13.75 232.5,18.75 228.75,18.75
C 233.75,20 238.75,16.25 238.75,28.75
L 240,28.75
  240,30
  233.75,30
  233.75,28.75
  235,28.75
C 235,23.75 233.75,20 228.75,20
L 228.75,28.75
  230,28.75
  230,30
Z 
"/>
<path fill="#fff" d="M 11.25,53.75
C 10,46.25 15,42.5 16.25,36.25
L 13.75,36.25
  13.75,35
  22.5,35
  22.5,36.25
  20,36.25
  25,52.5
  26.25,52.5
  26.25,53.75
  20,53.75
  20,52.5
  21.25,52.5
  17,38.75
C 16.25,41.25 12.5,45 15,50
L 16.25,51.25
  16.25,53.75
Z 
"/>
<path fill="#fff" d="M 30,53.75
C 28.75,42.5 35,42.5 36.25,36.25
L 35,36.25
  35,35
  41.25,35
  41.25,36.25
  40,36.25
  45,52.5
  47.5,36.25
  46.25,36.25
  46.25,35
  52.5,35
  52.5,36.25
  51.25,36.25
  56.25,52.5
  57.5,52.5
  57.5,53.75
  51.25,53.75
  51.25,52.5
  52.5,52.5
  48.333,38.75
  46.25,52.5
  47.5,52.5
  47.5,53.75
  40,53.75
  40,52.5
  41.25,52.5
  36.917,38.75
C 32.5,45 36.25,47.5 35,53.75
"/>
<path fill="#fff" d="M 61.25,53.75
L 61.25,52.5
  62.5,52.5
  62.5,36.25
  61.25,36.25
  61.25,35
  67.5,35
  67.5,36.25
  66.25,36.25
  66.25,40
  72.5,46.25
  72.5,36.25
  71.25,36.25
  71.25,35
  77.5,35
  77.5,36.25
  76.25,36.25
  76.25,52.5
  77.5,52.5
  77.5,53.75
  71.25,53.75
  71.25,52.5
  72.5,52.5
  72.5,47.5
  66.25,41.25
  66.25,52.5
  67.5,52.5
  67.5,53.75
Z 
"/>
<path fill="#fff" d="M 90,53.75
C 80,48.75 80,43.75 88.75,35
C 95,38.75 101.25,41.25 90,53.75
M 87.5,37.5
C 80,45 91.25,48.75 91.25,51.25
C 97.5,41.25 88.75,41.25 87.5,37.5
Z 
"/>
<path fill="#fff" d="M 100,53.75
L 100,52.5
  101.25,52.5
  101.25,36.25
  100,36.25
  100,35
  116.25,35
  116.25,36.25
  115,36.25
  115,52.5
  116.25,52.5
  116.25,53.75
  110,53.75
  110,52.5
  111.25,52.5
  111.25,36.25
  105,36.25
  105,52.5
  106.25,52.5
  106.25,53.75
"/>
<path fill="#fff" d="M 118.75,53.75
L 118.75,52.5
  121.25,52.5
  121.25,41.25
C 121.25,37.5 122.5,35 126.25,35
C 135,35 137.5,46.25 126.25,43.75
L 125,45
  125,52.5
  127.5,52.5
  127.5,53.75
Z 
M 130,40
C 130,36.25 123.75,33.75 125,43.75
L 126.25,42.5
C 127.5,42.5 130,45 130,40
"/>
<path fill="#fff" d="M 140,53.75
C 140,51.25 136.25,50 136.25,45
C 136.25,32.5 151.25,32.5 151.25,40
L 152.5,40
  152.5,41.25
  146.25,41.25
  146.25,40
  147.5,40
C 148.75,33.75 138.75,35 140,43.75
C 140,46.25 142.5,50 141.25,52.5
C 143.75,53.75 147.5,51.25 147.5,47.5
L 146.25,47.5
  146.25,46.25
  152.5,46.25
  152.5,47.5
  151.25,47.5
C 151.25,52.5 147.5,55 140,53.75
Z 
"/>
<path fill="#fff" d="M 155,35
L 156.25,38.75
  158.75,36.25
  162.5,36.25
  162.5,52.5
  161.25,52.5
  161.25,53.75
  167.5,53.75
  167.5,52.5
  166.25,52.5
  166.25,36.25
  170,36.25
  172.5,38.75
  173.75,35
"/>
<path fill="#fff" d="M 177.5,35
  177.5,36.25
  178.75,36.25
  182.5,48.75
  183.75,48.75
C 183.75,50 182.5,53.75 183.75,53.75
L 186.25,53.75
C 186.25,52.5 185,55 185.75,48.75
L 187.5,48.75
  187.5,47.5
  185.75,47.5
C 186.25,41.25 187.5,37.5 191.25,40
L 192.5,36.25
C 186.25,33.75 186.25,38.75 185,45
L 182.5,36.25
  183.75,36.25
  183.75,35
Z 
"/>
<path fill="#fff" d="M 201.25,53.75
L 201.25,52.5
  203.75,52.5
  203.75,51.25
C 192.5,52.5 190,42.5 203.75,36.25
L 201.25,36.25
  201.25,35
  210,35
  210,36.25
  207.5,36.25
C 221.25,42.5 220,52.5 207.5,51.25
L 207.5,52.5
  210,52.5
  210,53.75
M 203.75,37.5
C 198.75,41.25 196.25,51.25 203.75,50
M 207.5,37.5
L 207.5,50
C 215,51.25 212.5,41.25 207.5,37.5
"/>
<path fill="#fff" d="M 221.25,53.75
  221.25,52.5
  222.5,52.5
  226.667,43.75
  222.5,36.25
  221.25,36.25
  221.25,35
  227.5,35
  227.5,36.25
  226.25,36.25
  228.25,40
C 231.25,35 232.5,33.75 237.5,36.25
L 236.25,38.75
C 230,36.25 229.75,40 228.75,41.25
L 235,52.5
  236.25,52.5
  236.25,53.75
  230,53.75
  230,52.5
  231.25,52.5
  227.5,45
  223.75,52.5
  225,52.5
  225,53.75
Z 
"/>
<path fill="#fff" d="M 11.25,57.5
L 11.25,58.75
  12.5,58.75
  12.5,75
  11.25,75
  11.25,76.25
  25,76.25
  27.5,78.75
  28.75,75
  25,75
  25,58.75
  26.25,58.75
  26.25,57.5
  20,57.5
  20,58.75
  21.25,58.75
  21.25,75
  16.25,75
  16.25,58.75
  17.5,58.75
  17.5,57.5
Z 
"/>
<path fill="#fff" d="M 31.25,57.5
L 31.25,58.75
  32.5,58.75
C 32.5,65 36.25,65 37.5,66.25
L 37.5,75
  36.25,75
  36.25,76.25
  42.5,76.25
  42.5,75
  41.25,75
  41.25,66.25
C 42.5,65 46.25,65 46.25,58.75
L 47.5,58.75
  47.5,57.5
  41.25,57.5
  41.25,58.75
  42.5,58.75
C 42.5,67.5 36.25,67.5 36.25,58.75
L 37.5,58.75
  37.5,57.5
Z 
"/>
<path fill="#fff" d="M 51.25,57.5
L 57.5,57.5
  57.5,58.75
  56.25,58.75
  56.25,75
  60,75
  60,58.75
  58.75,58.75
  58.75,57.5
  65,57.5
  65,58.75
  63.75,58.75
  63.75,75
  67.5,75
  67.5,58.75
  66.25,58.75
  66.25,57.5
  72.5,57.5
  72.5,58.75
  71.25,58.75
  71.25,75
  72.5,75
  72.5,76.25
  51.25,76.25
  51.25,75
  52.5,75
  52.5,58.75
  51.25,58.75
"/>
<path fill="#fff" d="M 76.25,57.5
L 82.5,57.5
  82.5,58.75
  81.25,58.75
  81.25,75
  85,75
  85,58.75
  83.75,58.75
  83.75,57.5
  90,57.5
  90,58.75
  88.75,58.75
  88.75,75
  92.5,75
  92.5,58.75
  91.25,58.75
  91.25,57.5
  97.5,57.5
  97.5,58.75
  96.25,58.75
  96.25,75
  97.5,75
  97.5,76.25
  88.75,76.25
  88.75,80
  85,80
  85,76.25
L 76.25,76.25
  76.25,75
  77.5,75
  77.5,58.75
  76.25,58.75
"/>
<path fill="#fff" d="M 101.25,57.5
L 111.25,57.5
  111.25,58.75
  110,58.75
  110,65
C 111.25,67.5 112.5,68.75 117.5,70
L 117.5,76.25
  105,76.25
  105,75
  106.25,75
  106.25,58.75
  105,58.75
  102.5,61.25
M 110,68.75
L 110,75
  113.75,75
  113.75,70
C 112.5,68.75 111.25,68.75 110,67.5
Z 
"/>
<path fill="#fff" d="M 117.5,57.5
L 127.5,57.5
  127.5,58.75
  126.25,58.75
  126.25,62.5
  136.25,60
  136.25,58.75
L 135,58.75
  135,57.5
  141.25,57.5
  141.25,58.75
  140,58.75
  140,75
  141.25,75
  141.25,76.25
  135,76.25
  135,75
  136.25,75
  136.25,61.25
L 126.25,63.75
  126.25,65
C 127.5,67.5 128.75,68.75 133.75,70
L 133.75,76.25
  121.25,76.25
  121.25,75
  122.5,75
  122.5,58.75
  121.25,58.75
  118.75,61.25
M 126.25,68.75
L 126.25,75
  130,75
  130,70
C 128.75,68.75 127.5,68.75 126.25,67.5
Z 
"/>
<path fill="#fff" d="M 145,57.5
L 151.25,57.5
  151.25,58.75
  150,58.75
  150,65
C 151.25,67.5 152.5,68.75 157.5,70
L 157.5,76.25
  145,76.25
  145,75
  146.25,75
  146.25,58.75
  145,58.75
M 150,68.75
L 150,75
  153.75,75
  153.75,70
C 152.5,68.75 151.25,68.75 150,67.5
Z 
"/>
<path fill="#fff" d="M 161.25,57.5
L 167.5,57.5
  167.5,58.75
  166.25,58.75
  166.25,61.25
  170,61.25
  170,62.5
  166.25,62.5
L 166.25,65
C 167.5,67.5 168.75,68.75 173.75,70
L 173.75,76.25
  161.25,76.25
  161.25,75
  162.5,75
  162.5,62.5
  160,62.5
  160,61.25
  162.5,61.25
L 162.5,58.75
  161.25,58.75
M 166.25,68.75
L 166.25,75
  170,75
  170,70
C 168.75,68.75 167.5,68.75 166.25,67.5
Z 
"/>
<path fill="#fff" d="M 191.25,76.25
C 181.25,71.25 181.25,66.25 190,57.5
C 196.25,61.25 202.5,63.75 191.25,76.25
M 188.75,60
C 181.25,67.5 192.5,71.25 192.5,73.75
C 198.75,63.75 190,63.75 188.75,60
Z 
M 176.25,57.5
L 182.5,57.5
  182.5,58.75
  181.25,58.75
  181.25,75
  182.5,75
  182.5,76.25
  176.25,76.25
  176.25,75
  177.5,75
  177.5,58.75
  176.25,58.75
M 180,66.25
L 185,66.25
  185,67.5
  180,67.5
"/>
<path fill="#fff" d="M 201.25,76.25
C 201.25,65 207.5,62.5 208.75,57.5
L 212.5,57.5
C 212.5,62.5 220,65 220,76.25
L 216.25,76.25
C 216.25,67.5 211.25,67.5 208.75,60
C 206.25,63.75 205,68.75 205,76.25
M 205,68.75
L 205,67.5
C 206.25,68.75 213.75,68.75 215,67.5
L 215,68.75
C 213.75,70 206.25,70 205,68.75
M 208.25,68.75
L 212.0,68.75
  212.0,76.25
  208.167,76.25
"/>
</svg>